<svg xmlns="http://www.w3.org/2000/svg" width="512" height="512" viewBox="0 0 512 512" role="img" aria-labelledby="title desc">
  <title id="title">TOAN AAS</title>
  <desc id="desc">Biểu tượng ứng dụng TOAN AAS.</desc>
  <defs>
    <linearGradient id="surface" x1="72" y1="64" x2="442" y2="458" gradientUnits="userSpaceOnUse">
      <stop stop-color="#123a4b"/>
      <stop offset="1" stop-color="#07131f"/>
    </linearGradient>
    <linearGradient id="mark" x1="144" y1="139" x2="373" y2="365" gradientUnits="userSpaceOnUse">
      <stop stop-color="#77f0db"/>
      <stop offset=".5" stop-color="#48d5bb"/>
      <stop offset="1" stop-color="#259a91"/>
    </linearGradient>
    <filter id="glow" x="-30%" y="-30%" width="160%" height="160%">
      <feGaussianBlur stdDeviation="12" result="blur"/>
      <feColorMatrix in="blur" type="matrix" values="0 0 0 0 0.22 0 0 0 0 0.82 0 0 0 0 0.73 0 0 0 .35 0"/>
      <feMerge><feMergeNode/><feMergeNode in="SourceGraphic"/></feMerge>
    </filter>
  </defs>
  <rect width="512" height="512" rx="116" fill="#07131f"/>
  <rect x="30" y="30" width="452" height="452" rx="108" fill="url(#surface)" stroke="#67e4d0" stroke-opacity=".26" stroke-width="4"/>
  <circle cx="256" cy="256" r="158" fill="#0a2534" fill-opacity=".74" stroke="#76edda" stroke-opacity=".15" stroke-width="2"/>
  <g fill="url(#mark)" filter="url(#glow)">
    <path d="M132 151c0-11 9-20 20-20h150c11 0 20 9 20 20s-9 20-20 20h-55v176c0 11-9 20-20 20s-20-9-20-20V171h-55c-11 0-20-9-20-20Z"/>
    <path fill-rule="evenodd" d="M291 348l63-198c3-10 12-17 23-17s20 7 23 17l63 198c3 11-3 22-14 25s-22-3-25-14l-13-42h-68l-13 42c-3 11-14 17-25 14s-17-14-14-25Zm62-71h45l-22-73-23 73Z"/>
  </g>
  <path d="M256 87v42M235 108h42" stroke="#b8fff2" stroke-linecap="round" stroke-width="8"/>
</svg>
